<svg viewBox="0 0 325 241" version="1.1" xmlns="http://www.w3.org/2000/svg" xmlns:xlink="http://www.w3.org/1999/xlink">
    <defs></defs>
    <g id="starsTopRightVector" stroke="none" stroke-width="1" fill="none" fill-rule="evenodd">
        <polygon id="star2.11" fill="#969696" points="206 237.885967 202.90983 239.510565 203.5 236.06961 201 233.632713 204.454915 233.130684 206 230 207.545085 233.130684 211 233.632713 208.5 236.06961 209.09017 239.510565"></polygon>
        <polygon id="star2.10" fill="#969696" points="293.051462 200.812746 291.165555 201.804226 291.525731 199.704237 290 198.217017 292.108509 197.910633 293.051462 196 293.994416 197.910633 296.102924 198.217017 294.577193 199.704237 294.93737 201.804226"></polygon>
        <polygon id="star2.9" fill="#969696" points="302.328698 151.25 300.271449 152.331559 300.664349 150.04078 299 148.418441 301.300074 148.08422 302.328698 146 303.357322 148.08422 305.657396 148.418441 303.993047 150.04078 304.385946 152.331559"></polygon>
        <polygon id="star2.8" fill="#969696" points="215.328698 129.25 213.271449 130.331559 213.664349 128.04078 212 126.418441 214.300074 126.08422 215.328698 124 216.357322 126.08422 218.657396 126.418441 216.993047 128.04078 217.385946 130.331559"></polygon>
        <polygon id="star2.7" fill="#969696" points="321.328698 6.25 319.271449 7.33155948 319.664349 5.04077974 318 3.41844052 320.300074 3.08422026 321.328698 1 322.357322 3.08422026 324.657396 3.41844052 322.993047 5.04077974 323.385946 7.33155948"></polygon>
        <polygon id="star2.6" fill="#969696" points="309 50.8859667 305.90983 52.5105652 306.5 49.0696104 304 46.6327126 307.454915 46.1306841 309 43 310.545085 46.1306841 314 46.6327126 311.5 49.0696104 312.09017 52.5105652"></polygon>
        <polygon id="star2.5" fill="#969696" points="286 33.3087733 283.527864 34.6084521 284 31.8556883 282 29.9061701 284.763932 29.5045473 286 27 287.236068 29.5045473 290 29.9061701 288 31.8556883 288.472136 34.6084521"></polygon>
        <polygon id="star2.4" fill="#969696" points="266.52497 35.0636707 263.856337 36.466654 264.366001 33.4950877 262.207031 31.3906128 265.190653 30.9570671 266.52497 28.2534468 267.859286 30.9570671 270.842908 31.3906128 268.683939 33.4950877 269.193603 36.466654"></polygon>
        <polygon id="star2.3" fill="#969696" points="271.175057 20.6974661 268.916984 21.8846058 269.348237 19.3702035 267.521417 17.589494 270.046021 17.2226476 271.175057 14.9349689 272.304094 17.2226476 274.828698 17.589494 273.001878 19.3702035 273.433131 21.8846058"></polygon>
        <polygon id="star2.2" fill="#969696" points="180.051462 48.8127459 178.165555 49.8042261 178.525731 47.7042373 177 46.2170171 179.108509 45.9106329 180.051462 44 180.994416 45.9106329 183.102924 46.2170171 181.577193 47.7042373 181.93737 49.8042261"></polygon>
        <polygon id="star2.1" fill="#969696" points="5.90589114 31.7375388 2.87388367 33.3315595 3.45294557 29.9553695 1 27.5643386 4.38988741 27.0717591 5.90589114 24 7.42189488 27.0717591 10.8117823 27.5643386 8.35883672 29.9553695 8.93789862 33.3315595"></polygon>
    </g>
</svg>