<svg viewBox="0 0 494 247" version="1.1" xmlns="http://www.w3.org/2000/svg" xmlns:xlink="http://www.w3.org/1999/xlink">
    <defs></defs>
    <g id="starsTopLeftVector" stroke="none" stroke-width="1" fill="none" fill-rule="evenodd">
        <polygon id="Star-1-Copy-21" fill="#969696" points="486.905891 8.73753882 483.873884 10.3315595 484.452946 6.95536954 482 4.56433855 485.389887 4.07175908 486.905891 1 488.421895 4.07175908 491.811782 4.56433855 489.358837 6.95536954 489.937899 10.3315595"></polygon>
        <polygon id="star1.10" fill="#969696" points="349 134.885967 345.90983 136.510565 346.5 133.06961 344 130.632713 347.454915 130.130684 349 127 350.545085 130.130684 354 130.632713 351.5 133.06961 352.09017 136.510565"></polygon>
        <polygon id="star1.9" fill="#969696" points="46.3286978 244.25 44.2714494 245.331559 44.6643489 243.04078 43 241.418441 45.3000736 241.08422 46.3286978 239 47.357322 241.08422 49.6573956 241.418441 47.9930467 243.04078 48.3859462 245.331559"></polygon>
        <polygon id="star1.8" fill="#969696" points="77.3179386 214.810224 74.6493058 216.213207 75.1589693 213.241641 73 211.137166 75.9836222 210.70362 77.3179386 208 78.652255 210.70362 81.6358771 211.137166 79.4769078 213.241641 79.9865713 216.213207"></polygon>
        <polygon id="star1.7" fill="#969696" points="56.3286978 183.25 54.2714494 184.331559 54.6643489 182.04078 53 180.418441 55.3000736 180.08422 56.3286978 178 57.357322 180.08422 59.6573956 180.418441 57.9930467 182.04078 58.3859462 184.331559"></polygon>
        <polygon id="star1.6" fill="#969696" points="210.328698 28.25 208.271449 29.3315595 208.664349 27.0407797 207 25.4184405 209.300074 25.0842203 210.328698 23 211.357322 25.0842203 213.657396 25.4184405 211.993047 27.0407797 212.385946 29.3315595"></polygon>
        <polygon id="star1.5" fill="#969696" points="128.328698 68.25 126.271449 69.3315595 126.664349 67.0407797 125 65.4184405 127.300074 65.0842203 128.328698 63 129.357322 65.0842203 131.657396 65.4184405 129.993047 67.0407797 130.385946 69.3315595"></polygon>
        <polygon id="star1.4" fill="#969696" points="112.905891 47.7375388 109.873884 49.3315595 110.452946 45.9553695 108 43.5643386 111.389887 43.0717591 112.905891 40 114.421895 43.0717591 117.811782 43.5643386 115.358837 45.9553695 115.937899 49.3315595"></polygon>
        <polygon id="star1.3" fill="#969696" points="87 82.8859667 83.9098301 84.5105652 84.5 81.0696104 82 78.6327126 85.454915 78.1306841 87 75 88.545085 78.1306841 92 78.6327126 89.5 81.0696104 90.0901699 84.5105652"></polygon>
        <polygon id="star1.2" fill="#969696" points="3.32869781 36.25 1.27144942 37.3315595 1.6643489 35.0407797 0 33.4184405 2.30007362 33.0842203 3.32869781 31 4.357322 33.0842203 6.65739561 33.4184405 4.99304671 35.0407797 5.38594619 37.3315595"></polygon>
        <polygon id="star1.1" fill="#969696" points="25.4316223 16.5667184 22.0746951 18.3315595 22.7158111 14.5935661 20 11.9463046 23.7531587 11.4009387 25.4316223 8 27.1100858 11.4009387 30.8632445 11.9463046 28.1474334 14.5935661 28.7885494 18.3315595"></polygon>
    </g>
</svg>