
<svg viewBox="0 0 174 116" version="1.1" xmlns="http://www.w3.org/2000/svg" xmlns:xlink="http://www.w3.org/1999/xlink">
    <defs></defs>
    <g id="starsBottomLeftVector" stroke="none" stroke-width="1" fill="none" fill-rule="evenodd">
        <polygon id="star3.7" fill="#969696" points="170.328698 95.25 168.271449 96.3315595 168.664349 94.0407797 167 92.4184405 169.300074 92.0842203 170.328698 90 171.357322 92.0842203 173.657396 92.4184405 171.993047 94.0407797 172.385946 96.3315595"></polygon>
        <polygon id="star3.6" fill="#969696" points="84.3286978 105.25 82.2714494 106.331559 82.6643489 104.04078 81 102.418441 83.3000736 102.08422 84.3286978 100 85.357322 102.08422 87.6573956 102.418441 85.9930467 104.04078 86.3859462 106.331559"></polygon>
        <polygon id="star3.5" fill="#969696" points="50 111.885967 46.9098301 113.510565 47.5 110.06961 45 107.632713 48.454915 107.130684 50 104 51.545085 107.130684 55 107.632713 52.5 110.06961 53.0901699 113.510565"></polygon>
        <polygon id="star3.4" fill="#969696" points="44.3179386 81.8102239 41.6493058 83.2132072 42.1589693 80.2416409 40 78.137166 42.9836222 77.7036203 44.3179386 75 45.652255 77.7036203 48.6358771 78.137166 46.4769078 80.2416409 46.9865713 83.2132072"></polygon>
        <polygon id="star3.3" fill="#969696" points="22 82.8859667 18.9098301 84.5105652 19.5 81.0696104 17 78.6327126 20.454915 78.1306841 22 75 23.545085 78.1306841 27 78.6327126 24.5 81.0696104 25.0901699 84.5105652"></polygon>
        <polygon id="star3.2" fill="#969696" points="4.32869781 22.25 2.27144942 23.3315595 2.6643489 21.0407797 1 19.4184405 3.30007362 19.0842203 4.32869781 17 5.357322 19.0842203 7.65739561 19.4184405 5.99304671 21.0407797 6.38594619 23.3315595"></polygon>
        <polygon id="star3.1" fill="#969696" points="54.3286978 6.25 52.2714494 7.33155948 52.6643489 5.04077974 51 3.41844052 53.3000736 3.08422026 54.3286978 1 55.357322 3.08422026 57.6573956 3.41844052 55.9930467 5.04077974 56.3859462 7.33155948"></polygon>
    </g>
</svg>